# Blender v2.90.0 OBJ File: 'WaterBlock.blend'
# www.blender.org
mtllib StraightSeaweed.mtl
o Straight_Seaweed_Plane
v -0.348488 0.019722 -0.038537
v 0.348488 0.019722 -0.038537
v -0.130541 8.736034 0.032164
v 0.130541 8.736034 0.032164
v -0.363137 6.992772 -0.045128
v -0.383163 5.249510 -0.054459
v -0.387547 3.506247 -0.056550
v -0.398645 1.762984 -0.061918
v -0.209093 0.019722 0.022529
v -0.069698 0.019722 0.045010
v 0.069698 0.019722 0.045010
v 0.209093 0.019722 0.022529
v 0.398645 1.762984 -0.061918
v 0.387547 3.506247 -0.056550
v 0.383163 5.249510 -0.054459
v 0.363137 6.992772 -0.045128
v 0.078325 8.736034 0.041713
v 0.026108 8.736034 0.045010
v -0.026108 8.736034 0.045010
v -0.078325 8.736034 0.041713
v -0.239187 1.762984 0.015894
v -0.232528 3.506247 0.017429
v -0.229898 5.249510 0.018025
v -0.217882 6.992772 0.020672
v -0.079729 1.762984 0.045010
v -0.077509 3.506247 0.045010
v -0.076633 5.249510 0.045010
v -0.072627 6.992772 0.045010
v 0.079729 1.762984 0.045010
v 0.077509 3.506247 0.045010
v 0.076633 5.249510 0.045010
v 0.072627 6.992772 0.045010
v 0.239187 1.762984 0.015894
v 0.232528 3.506247 0.017429
v 0.229898 5.249510 0.018025
v 0.217882 6.992772 0.020672
v 0.303018 7.864404 -0.019412
v -0.303018 7.864404 -0.019412
v -0.181811 7.864404 0.027854
v -0.060604 7.864404 0.045010
v 0.060604 7.864404 0.045010
v 0.181811 7.864404 0.027854
v -0.382041 6.121140 -0.053926
v 0.382041 6.121141 -0.053926
v -0.229225 6.121141 0.018177
v -0.076408 6.121141 0.045010
v 0.076408 6.121141 0.045010
v 0.229225 6.121141 0.018177
v -0.387547 4.377878 -0.056550
v 0.387547 4.377878 -0.056550
v -0.232528 4.377878 0.017429
v -0.077509 4.377878 0.045010
v 0.077509 4.377878 0.045010
v 0.232528 4.377878 0.017429
v -0.390859 2.634616 -0.058140
v 0.390859 2.634616 -0.058140
v -0.234515 2.634616 0.016975
v -0.078172 2.634616 0.045010
v 0.078172 2.634616 0.045010
v 0.234515 2.634616 0.016975
v -0.398645 0.891353 -0.061918
v 0.398645 0.891353 -0.061918
v -0.239187 0.891353 0.015894
v -0.079729 0.891353 0.045010
v 0.079729 0.891353 0.045010
v 0.239187 0.891353 0.015894
v 0.226865 8.300219 0.007720
v -0.136119 8.300219 0.035243
v -0.045373 8.300219 0.045010
v 0.045373 8.300219 0.045010
v 0.136119 8.300219 0.035243
v -0.226865 8.300219 0.007720
v -0.336432 7.428588 -0.033266
v 0.336432 7.428588 -0.033266
v -0.201859 7.428588 0.024005
v -0.067286 7.428588 0.045010
v 0.067286 7.428588 0.045010
v 0.201859 7.428588 0.024005
v 0.367841 6.556956 -0.047286
v -0.220705 6.556956 0.020062
v -0.073568 6.556956 0.045010
v 0.073568 6.556956 0.045010
v 0.220705 6.556956 0.020062
v -0.367841 6.556956 -0.047286
v -0.382041 5.685325 -0.053926
v 0.382041 5.685325 -0.053926
v -0.229225 5.685325 0.018177
v -0.076408 5.685325 0.045010
v 0.076408 5.685325 0.045010
v 0.229225 5.685325 0.018177
v 0.387547 4.813694 -0.056550
v -0.232528 4.813694 0.017429
v -0.077509 4.813694 0.045010
v 0.077509 4.813694 0.045010
v 0.232528 4.813694 0.017429
v -0.387547 4.813694 -0.056550
v -0.387547 3.942063 -0.056550
v 0.387547 3.942063 -0.056550
v -0.232528 3.942063 0.017429
v -0.077509 3.942063 0.045010
v 0.077509 3.942063 0.045010
v 0.232528 3.942063 0.017429
v 0.388594 3.070431 -0.057052
v -0.233157 3.070431 0.017286
v -0.077719 3.070431 0.045010
v 0.077719 3.070431 0.045010
v 0.233157 3.070431 0.017286
v -0.388594 3.070431 -0.057052
v -0.391256 2.198800 -0.058332
v 0.391256 2.198800 -0.058332
v -0.234753 2.198800 0.016920
v -0.078251 2.198800 0.045010
v 0.078251 2.198800 0.045010
v 0.234753 2.198800 0.016920
v 0.398645 1.327168 -0.061918
v -0.239187 1.327168 0.015894
v -0.079729 1.327168 0.045010
v 0.079729 1.327168 0.045010
v 0.239187 1.327168 0.015894
v -0.398645 1.327168 -0.061918
v -0.388590 0.455537 -0.057049
v 0.388590 0.455537 -0.057049
v -0.233154 0.455537 0.017287
v -0.077718 0.455537 0.045010
v 0.077718 0.455537 0.045010
v 0.233154 0.455537 0.017287
vt 0.800000 0.950000
vt 1.000000 0.950000
vt 1.000000 1.000000
vt 0.800000 1.000000
vt 0.000000 0.950000
vt 0.200000 0.950000
vt 0.200000 1.000000
vt 0.000000 1.000000
vt 0.400000 0.950000
vt 0.400000 1.000000
vt 0.600000 0.950000
vt 0.600000 1.000000
vt 0.000000 0.150000
vt 0.200000 0.150000
vt 0.200000 0.200000
vt 0.000000 0.200000
vt 0.000000 0.350000
vt 0.200000 0.350000
vt 0.200000 0.400000
vt 0.000000 0.400000
vt 0.000000 0.550000
vt 0.200000 0.550000
vt 0.200000 0.600000
vt 0.000000 0.600000
vt 0.000000 0.750000
vt 0.200000 0.750000
vt 0.200000 0.800000
vt 0.000000 0.800000
vt 0.400000 0.150000
vt 0.400000 0.200000
vt 0.400000 0.350000
vt 0.400000 0.400000
vt 0.400000 0.550000
vt 0.400000 0.600000
vt 0.400000 0.750000
vt 0.400000 0.800000
vt 0.600000 0.150000
vt 0.600000 0.200000
vt 0.600000 0.350000
vt 0.600000 0.400000
vt 0.600000 0.550000
vt 0.600000 0.600000
vt 0.600000 0.750000
vt 0.600000 0.800000
vt 0.800000 0.150000
vt 0.800000 0.200000
vt 0.800000 0.350000
vt 0.800000 0.400000
vt 0.800000 0.550000
vt 0.800000 0.600000
vt 0.800000 0.750000
vt 0.800000 0.800000
vt 1.000000 0.150000
vt 1.000000 0.200000
vt 1.000000 0.350000
vt 1.000000 0.400000
vt 1.000000 0.550000
vt 1.000000 0.600000
vt 1.000000 0.750000
vt 1.000000 0.800000
vt 0.600000 0.850000
vt 0.800000 0.850000
vt 0.800000 0.900000
vt 0.600000 0.900000
vt 0.400000 0.850000
vt 0.400000 0.900000
vt 0.200000 0.850000
vt 0.200000 0.900000
vt 0.000000 0.850000
vt 0.000000 0.900000
vt 1.000000 0.850000
vt 1.000000 0.900000
vt 0.800000 0.650000
vt 1.000000 0.650000
vt 1.000000 0.700000
vt 0.800000 0.700000
vt 0.600000 0.650000
vt 0.600000 0.700000
vt 0.400000 0.650000
vt 0.400000 0.700000
vt 0.200000 0.650000
vt 0.200000 0.700000
vt 0.000000 0.650000
vt 0.000000 0.700000
vt 0.800000 0.450000
vt 1.000000 0.450000
vt 1.000000 0.500000
vt 0.800000 0.500000
vt 0.600000 0.450000
vt 0.600000 0.500000
vt 0.400000 0.450000
vt 0.400000 0.500000
vt 0.200000 0.450000
vt 0.200000 0.500000
vt 0.000000 0.450000
vt 0.000000 0.500000
vt 0.800000 0.250000
vt 1.000000 0.250000
vt 1.000000 0.300000
vt 0.800000 0.300000
vt 0.600000 0.250000
vt 0.600000 0.300000
vt 0.400000 0.250000
vt 0.400000 0.300000
vt 0.200000 0.250000
vt 0.200000 0.300000
vt 0.000000 0.250000
vt 0.000000 0.300000
vt 0.800000 0.050000
vt 1.000000 0.050000
vt 1.000000 0.100000
vt 0.800000 0.100000
vt 0.600000 0.050000
vt 0.600000 0.100000
vt 0.400000 0.050000
vt 0.400000 0.100000
vt 0.200000 0.050000
vt 0.200000 0.100000
vt 0.000000 0.050000
vt 0.000000 0.100000
vt 0.000000 0.000000
vt 0.200000 0.000000
vt 0.400000 0.000000
vt 0.600000 0.000000
vt 0.800000 0.000000
vt 1.000000 0.000000
vn 0.2010 0.0051 0.9796
vn 0.2975 0.0096 0.9546
vn 0.2510 0.0100 0.9679
vn 0.1648 0.0049 0.9863
vn -0.2975 0.0096 0.9546
vn -0.2010 0.0051 0.9796
vn -0.1648 0.0049 0.9863
vn -0.2510 0.0100 0.9679
vn -0.0543 0.0002 0.9985
vn -0.0443 0.0003 0.9990
vn 0.0543 0.0002 0.9985
vn 0.0443 0.0003 0.9990
vn -0.4385 0.0000 0.8987
vn -0.3120 0.0000 0.9501
vn -0.3114 0.0003 0.9503
vn -0.4373 0.0005 0.8993
vn -0.4317 0.0002 0.9020
vn -0.3064 0.0001 0.9519
vn -0.3058 0.0000 0.9521
vn -0.4309 0.0001 0.9024
vn -0.4299 0.0003 0.9029
vn -0.3053 0.0002 0.9522
vn -0.3034 0.0002 0.9528
vn -0.4281 0.0004 0.9037
vn -0.4180 0.0014 0.9084
vn -0.2951 0.0007 0.9554
vn -0.2893 0.0012 0.9572
vn -0.4086 0.0022 0.9127
vn -0.0902 0.0000 0.9959
vn -0.0899 0.0000 0.9959
vn -0.0882 0.0000 0.9961
vn -0.0880 0.0000 0.9961
vn -0.0877 0.0000 0.9961
vn -0.0871 0.0000 0.9962
vn -0.0843 0.0000 0.9964
vn -0.0821 0.0000 0.9966
vn 0.0902 0.0000 0.9959
vn 0.0899 0.0000 0.9959
vn 0.0882 0.0000 0.9961
vn 0.0880 0.0000 0.9961
vn 0.0877 0.0000 0.9961
vn 0.0871 0.0000 0.9962
vn 0.0843 0.0000 0.9964
vn 0.0821 0.0000 0.9966
vn 0.3120 0.0000 0.9501
vn 0.3114 0.0003 0.9503
vn 0.3064 0.0001 0.9519
vn 0.3058 0.0000 0.9521
vn 0.3053 0.0002 0.9522
vn 0.3034 0.0002 0.9528
vn 0.2951 0.0007 0.9554
vn 0.2893 0.0012 0.9572
vn 0.4385 0.0000 0.8987
vn 0.4373 0.0005 0.8993
vn 0.4317 0.0002 0.9020
vn 0.4309 0.0001 0.9024
vn 0.4299 0.0003 0.9029
vn 0.4281 0.0004 0.9037
vn 0.4180 0.0014 0.9084
vn 0.4086 0.0022 0.9127
vn 0.0772 0.0001 0.9970
vn 0.2745 0.0021 0.9616
vn 0.2495 0.0037 0.9684
vn 0.0689 0.0001 0.9976
vn -0.0772 0.0001 0.9970
vn -0.0689 0.0001 0.9976
vn -0.2745 0.0021 0.9616
vn -0.2495 0.0037 0.9684
vn -0.3911 0.0041 0.9203
vn -0.3576 0.0066 0.9338
vn 0.3911 0.0041 0.9203
vn 0.3576 0.0066 0.9338
vn 0.3026 0.0000 0.9531
vn 0.4269 0.0001 0.9043
vn 0.4242 0.0010 0.9056
vn 0.3013 0.0005 0.9535
vn 0.0868 0.0000 0.9962
vn 0.0862 0.0000 0.9962
vn -0.0868 0.0000 0.9962
vn -0.0862 0.0000 0.9962
vn -0.3026 0.0000 0.9531
vn -0.3013 0.0005 0.9535
vn -0.4269 0.0001 0.9043
vn -0.4242 0.0010 0.9056
vn 0.3057 0.0000 0.9521
vn 0.4307 0.0000 0.9025
vn 0.0879 0.0000 0.9961
vn -0.0879 0.0000 0.9961
vn -0.3057 0.0000 0.9521
vn -0.4307 0.0000 0.9025
vn 0.3084 0.0003 0.9512
vn 0.4346 0.0006 0.9006
vn 0.4327 0.0002 0.9015
vn 0.3074 0.0001 0.9516
vn 0.0889 0.0000 0.9960
vn 0.0885 0.0000 0.9961
vn -0.0889 0.0000 0.9960
vn -0.0885 0.0000 0.9961
vn -0.3084 0.0003 0.9512
vn -0.3074 0.0001 0.9516
vn -0.4346 0.0006 0.9006
vn -0.4327 0.0002 0.9015
vn 0.3038 -0.0020 0.9527
vn 0.4266 -0.0037 0.9044
vn 0.4368 -0.0008 0.8995
vn 0.3112 -0.0004 0.9503
vn 0.0870 -0.0001 0.9962
vn 0.0898 0.0000 0.9959
vn -0.0870 -0.0001 0.9962
vn -0.0898 0.0000 0.9959
vn -0.3038 -0.0020 0.9527
vn -0.3112 -0.0004 0.9503
vn -0.4266 -0.0037 0.9044
vn -0.4368 -0.0008 0.8995
vn -0.4173 -0.0060 0.9087
vn -0.2906 -0.0030 0.9568
vn -0.0832 -0.0001 0.9965
vn 0.0832 -0.0001 0.9965
vn 0.2906 -0.0030 0.9568
vn 0.4173 -0.0060 0.9087
usemtl None
s 1
f 71/1/1 67/2/2 4/3/3 17/4/4
f 72/5/5 68/6/6 20/7/7 3/8/8
f 68/6/6 69/9/9 19/10/10 20/7/7
f 69/9/9 70/11/11 18/12/12 19/10/10
f 70/11/11 71/1/1 17/4/4 18/12/12
f 120/13/13 116/14/14 21/15/15 8/16/16
f 108/17/17 104/18/18 22/19/19 7/20/20
f 96/21/21 92/22/22 23/23/23 6/24/24
f 84/25/25 80/26/26 24/27/27 5/28/28
f 116/14/14 117/29/29 25/30/30 21/15/15
f 104/18/18 105/31/31 26/32/32 22/19/19
f 92/22/22 93/33/33 27/34/34 23/23/23
f 80/26/26 81/35/35 28/36/36 24/27/27
f 117/29/29 118/37/37 29/38/38 25/30/30
f 105/31/31 106/39/39 30/40/40 26/32/32
f 93/33/33 94/41/41 31/42/42 27/34/34
f 81/35/35 82/43/43 32/44/44 28/36/36
f 118/37/37 119/45/45 33/46/46 29/38/38
f 106/39/39 107/47/47 34/48/48 30/40/40
f 94/41/41 95/49/49 35/50/50 31/42/42
f 82/43/43 83/51/51 36/52/52 32/44/44
f 119/45/45 115/53/53 13/54/54 33/46/46
f 107/47/47 103/55/55 14/56/56 34/48/48
f 95/49/49 91/57/57 15/58/58 35/50/50
f 83/51/51 79/59/59 16/60/60 36/52/52
f 77/61/61 78/62/62 42/63/63 41/64/64
f 76/65/65 77/61/61 41/64/64 40/66/66
f 75/67/67 76/65/65 40/66/66 39/68/68
f 73/69/69 75/67/67 39/68/68 38/70/70
f 78/62/62 74/71/71 37/72/72 42/63/63
f 90/73/73 86/74/74 44/75/75 48/76/76
f 89/77/77 90/73/73 48/76/76 47/78/78
f 88/79/79 89/77/77 47/78/78 46/80/80
f 87/81/81 88/79/79 46/80/80 45/82/82
f 85/83/83 87/81/81 45/82/82 43/84/84
f 102/85/85 98/86/86 50/87/86 54/88/85
f 101/89/87 102/85/85 54/88/85 53/90/87
f 100/91/88 101/89/87 53/90/87 52/92/88
f 99/93/89 100/91/88 52/92/88 51/94/89
f 97/95/90 99/93/89 51/94/89 49/96/90
f 114/97/91 110/98/92 56/99/93 60/100/94
f 113/101/95 114/97/91 60/100/94 59/102/96
f 112/103/97 113/101/95 59/102/96 58/104/98
f 111/105/99 112/103/97 58/104/98 57/106/100
f 109/107/101 111/105/99 57/106/100 55/108/102
f 126/109/103 122/110/104 62/111/105 66/112/106
f 125/113/107 126/109/103 66/112/106 65/114/108
f 124/115/109 125/113/107 65/114/108 64/116/110
f 123/117/111 124/115/109 64/116/110 63/118/112
f 121/119/113 123/117/111 63/118/112 61/120/114
f 41/64/64 42/63/63 71/1/1 70/11/11
f 40/66/66 41/64/64 70/11/11 69/9/9
f 39/68/68 40/66/66 69/9/9 68/6/6
f 38/70/70 39/68/68 68/6/6 72/5/5
f 42/63/63 37/72/72 67/2/2 71/1/1
f 36/52/52 16/60/60 74/71/71 78/62/62
f 5/28/28 24/27/27 75/67/67 73/69/69
f 24/27/27 28/36/36 76/65/65 75/67/67
f 28/36/36 32/44/44 77/61/61 76/65/65
f 32/44/44 36/52/52 78/62/62 77/61/61
f 48/76/76 44/75/75 79/59/59 83/51/51
f 47/78/78 48/76/76 83/51/51 82/43/43
f 46/80/80 47/78/78 82/43/43 81/35/35
f 45/82/82 46/80/80 81/35/35 80/26/26
f 43/84/84 45/82/82 80/26/26 84/25/25
f 6/24/24 23/23/23 87/81/81 85/83/83
f 23/23/23 27/34/34 88/79/79 87/81/81
f 27/34/34 31/42/42 89/77/77 88/79/79
f 31/42/42 35/50/50 90/73/73 89/77/77
f 35/50/50 15/58/58 86/74/74 90/73/73
f 54/88/85 50/87/86 91/57/57 95/49/49
f 53/90/87 54/88/85 95/49/49 94/41/41
f 52/92/88 53/90/87 94/41/41 93/33/33
f 51/94/89 52/92/88 93/33/33 92/22/22
f 49/96/90 51/94/89 92/22/22 96/21/21
f 7/20/20 22/19/19 99/93/89 97/95/90
f 22/19/19 26/32/32 100/91/88 99/93/89
f 26/32/32 30/40/40 101/89/87 100/91/88
f 30/40/40 34/48/48 102/85/85 101/89/87
f 34/48/48 14/56/56 98/86/86 102/85/85
f 60/100/94 56/99/93 103/55/55 107/47/47
f 59/102/96 60/100/94 107/47/47 106/39/39
f 58/104/98 59/102/96 106/39/39 105/31/31
f 57/106/100 58/104/98 105/31/31 104/18/18
f 55/108/102 57/106/100 104/18/18 108/17/17
f 8/16/16 21/15/15 111/105/99 109/107/101
f 21/15/15 25/30/30 112/103/97 111/105/99
f 25/30/30 29/38/38 113/101/95 112/103/97
f 29/38/38 33/46/46 114/97/91 113/101/95
f 33/46/46 13/54/54 110/98/92 114/97/91
f 66/112/106 62/111/105 115/53/53 119/45/45
f 65/114/108 66/112/106 119/45/45 118/37/37
f 64/116/110 65/114/108 118/37/37 117/29/29
f 63/118/112 64/116/110 117/29/29 116/14/14
f 61/120/114 63/118/112 116/14/14 120/13/13
f 1/121/115 9/122/116 123/117/111 121/119/113
f 9/122/116 10/123/117 124/115/109 123/117/111
f 10/123/117 11/124/118 125/113/107 124/115/109
f 11/124/118 12/125/119 126/109/103 125/113/107
f 12/125/119 2/126/120 122/110/104 126/109/103
